<svg xmlns="http://www.w3.org/2000/svg" xmlns:xlink="http://www.w3.org/1999/xlink" width="500" zoomAndPan="magnify" viewBox="0 0 375 374.999991" height="500" preserveAspectRatio="xMidYMid meet" version="1.0"><defs><clipPath id="099fc18fb3"><path d="M 62.34375 15.757812 L 312.84375 15.757812 L 312.84375 359.257812 L 62.34375 359.257812 Z M 62.34375 15.757812 " clip-rule="nonzero"/></clipPath><clipPath id="5e1e20d7cc"><path d="M 62.34375 214 L 141 214 L 141 359.257812 L 62.34375 359.257812 Z M 62.34375 214 " clip-rule="nonzero"/></clipPath><clipPath id="0cb2802b1a"><path d="M 62.34375 15.757812 L 312.84375 15.757812 L 312.84375 151 L 62.34375 151 Z M 62.34375 15.757812 " clip-rule="nonzero"/></clipPath></defs><g clip-path="url(#099fc18fb3)"><path fill="#0e5f96" d="M 192.503906 15.761719 L 117.816406 15.761719 C 87.199219 15.761719 62.378906 40.566406 62.378906 71.164062 L 62.378906 359.253906 L 85.503906 359.253906 C 116.121094 359.253906 140.945312 334.449219 140.945312 303.851562 L 140.945312 89.367188 L 192.503906 89.367188 C 216.5625 89.367188 234.242188 108.503906 234.242188 133.527344 C 234.242188 158.554688 216.5625 177.695312 192.503906 177.695312 L 163.09375 177.695312 L 163.09375 232.710938 C 163.09375 233.320312 163.121094 233.925781 163.183594 234.535156 C 163.242188 235.140625 163.332031 235.742188 163.449219 236.335938 C 163.570312 236.933594 163.714844 237.523438 163.894531 238.105469 C 164.070312 238.6875 164.277344 239.261719 164.507812 239.824219 C 164.742188 240.386719 165.003906 240.9375 165.289062 241.472656 C 165.578125 242.007812 165.890625 242.53125 166.226562 243.039062 C 166.566406 243.542969 166.929688 244.03125 167.316406 244.503906 C 167.703125 244.972656 168.109375 245.421875 168.539062 245.855469 C 168.972656 246.285156 169.421875 246.691406 169.894531 247.078125 C 170.363281 247.464844 170.851562 247.828125 171.359375 248.164062 C 171.867188 248.503906 172.386719 248.816406 172.925781 249.101562 C 173.460938 249.390625 174.011719 249.648438 174.574219 249.882812 C 175.136719 250.117188 175.710938 250.320312 176.292969 250.496094 C 176.875 250.671875 177.464844 250.820312 178.0625 250.941406 C 178.660156 251.058594 179.261719 251.148438 179.871094 251.207031 C 180.476562 251.265625 181.082031 251.296875 181.691406 251.296875 L 192.503906 251.296875 C 260.265625 251.296875 312.808594 198.792969 312.808594 133.527344 C 312.808594 68.261719 260.257812 15.761719 192.503906 15.761719 Z M 192.503906 15.761719 " fill-opacity="1" fill-rule="nonzero"/></g><g clip-path="url(#5e1e20d7cc)"><path fill="#054a70" d="M 85.503906 359.253906 C 116.121094 359.253906 140.945312 334.449219 140.945312 303.851562 L 140.945312 214.921875 C 140.945312 264.6875 106.09375 282.675781 62.378906 282.675781 L 62.378906 359.253906 Z M 85.503906 359.253906 " fill-opacity="1" fill-rule="nonzero"/></g><g clip-path="url(#0cb2802b1a)"><path fill="#399cff" d="M 192.503906 15.761719 L 117.816406 15.761719 C 87.199219 15.761719 62.378906 40.566406 62.378906 71.164062 L 62.378906 150.199219 C 68.460938 110.058594 107.890625 89.359375 140.945312 89.359375 L 192.503906 89.359375 C 278.3125 89.359375 312.808594 133.523438 312.808594 133.523438 C 312.808594 68.265625 260.257812 15.761719 192.503906 15.761719 Z M 192.503906 15.761719 " fill-opacity="1" fill-rule="nonzero"/></g><path fill="#054a70" d="M 234.242188 133.527344 C 234.242188 158.554688 216.5625 177.695312 192.503906 177.695312 L 163.09375 177.695312 L 163.09375 232.710938 C 163.09375 233.320312 163.121094 233.925781 163.183594 234.535156 C 163.242188 235.140625 163.332031 235.742188 163.449219 236.335938 C 163.570312 236.933594 163.714844 237.523438 163.894531 238.105469 C 164.070312 238.6875 164.273438 239.261719 164.507812 239.824219 C 164.742188 240.386719 165 240.9375 165.289062 241.472656 C 165.574219 242.011719 165.886719 242.53125 166.226562 243.039062 C 166.566406 243.542969 166.929688 244.03125 167.3125 244.503906 C 167.699219 244.972656 168.109375 245.421875 168.539062 245.855469 C 168.972656 246.285156 169.421875 246.691406 169.894531 247.078125 C 170.363281 247.464844 170.851562 247.828125 171.359375 248.164062 C 171.867188 248.503906 172.386719 248.816406 172.925781 249.101562 C 173.460938 249.390625 174.011719 249.648438 174.574219 249.882812 C 175.136719 250.117188 175.710938 250.320312 176.292969 250.496094 C 176.875 250.675781 177.464844 250.820312 178.0625 250.941406 C 178.660156 251.058594 179.261719 251.148438 179.871094 251.207031 C 180.476562 251.265625 181.082031 251.296875 181.691406 251.296875 C 227.890625 233.113281 234.242188 190.339844 234.242188 133.527344 Z M 234.242188 133.527344 " fill-opacity="1" fill-rule="nonzero"/></svg>